<!--?xml version="1.0" standalone="no"?-->
              <svg id="sw-js-blob-svg" viewBox="0 0 100 100" xmlns="http://www.w3.org/2000/svg" version="1.1">
                    <defs> 
                        <linearGradient id="sw-gradient" x1="0" x2="1" y1="1" y2="0">
                            <stop id="stop1" stop-color="rgba(255, 231, 145, 1)" offset="0%"></stop>
                            <stop id="stop2" stop-color="rgba(120, 196, 195, 1)" offset="100%"></stop>
                        </linearGradient>
                    </defs>
                <path fill="url(#sw-gradient)" d="M12.2,-12.9C18.7,-9,29,-8,32.4,-3.5C35.8,0.9,32.3,8.8,27.8,15.5C23.3,22.3,17.7,27.9,10.7,31.2C3.7,34.5,-4.8,35.5,-9.4,31.4C-14,27.3,-14.8,18.1,-15.5,11.5C-16.2,4.9,-17,0.9,-18,-4.9C-19.1,-10.7,-20.4,-18.4,-17.5,-22.9C-14.5,-27.4,-7.3,-28.8,-2.2,-26.2C2.8,-23.5,5.6,-16.7,12.2,-12.9Z" width="100%" height="100%" transform="translate(50 50)" stroke-width="0" style="transition: all 0.3s ease 0s;" stroke="url(#sw-gradient)"></path>
              </svg>