<svg xmlns="http://www.w3.org/2000/svg" version="1.1" xmlns:xlink="http://www.w3.org/1999/xlink" xmlns:svgjs="http://svgjs.dev/svgjs" viewBox="0 0 800 800"><defs><linearGradient x1="50%" y1="0%" x2="50%" y2="100%" id="ccchaos-grad"><stop stop-color="#ff9c00" stop-opacity="1" offset="0%"></stop><stop stop-color="#ffe791" stop-opacity="1" offset="100%"></stop></linearGradient></defs><g stroke-width="2" stroke="url(#ccchaos-grad)" fill="none" stroke-linecap="round"><path d="M404.72 99.72C414.7 99.96 424.9 101.19 435.3 103.35 445.73 105.94 456.37 109.35 467.18 113.48 478.01 117.84 489.01 122.75 500.09 128.12 511.13 133.48 522.19 139.14 533.13 145.02 543.89 150.69 554.37 156.48 564.39 162.32 573.99 167.84 582.89 173.39 590.9 178.94 598.19 184.13 604.36 189.35 609.24 194.6 614.59 202.06 617.69 217.2 616.21 225.08 614.3 232.98 612.84 250.17 615.64 259.56 619.98 265.91 626.1 272.64 634.03 279.72 643.88 286.8 655.08 294.25 667.15 302.05 679.71 309.85 691.85 317.99 702.75 326.44 712.01 334.89 718.67 343.65 722.15 352.7 722.65 361.74 719.61 371.06 713.21 380.64 704.54 390.23 693.93 399.86 682.32 409.53 670.92 419.2 660.22 428.93 650.92 438.71 643.83 448.52 638.93 458.41 636.26 468.37 636.13 478.41 637.79 488.55 640.77 498.78 645.11 509.12 649.67 519.57 653.86 530.1 657.8 540.74 660.43 551.44 661.43 562.16 661.12 572.92 658.83 583.62 654.59 594.19 648.87 604.65 641.42 614.84 632.5 624.62 622.55 634.09 611.61 642.98 599.98 651.14 587.93 658.74 575.63 665.42 563.3 671.04 551.02 675.91 538.94 679.59 527.17 682.02 515.66 683.66 504.51 684.06 493.72 683.25 483.21 681.84 472.99 679.44 463.04 676.16 453.28 672.76 443.68 668.86 434.21 664.69 424.82 661.01 415.48 657.49 406.15 654.34 396.85 652.26 387.52 650.86 378.16 650.27 368.8 651.01 359.63 652.55 350.68 654.77 341.74 658.03 333.03 661.64 324.6 665.39 316.2 669.61 308.11 673.52 300.37 676.92 292.69 680.17 285.38 682.53 278.47 683.87 271.59 684.6 265.11 684.1 259.02 682.36 252.89 679.82 247.1 676.02 241.61 671.04 235.96 665.31 230.5 658.53 225.19 650.84 219.56 642.6 213.95 633.64 208.31 624.1 202.24 614.27 196.07 604.04 189.8 593.55 183.09 582.96 176.33 572.25 169.56 561.49 162.54 550.78 155.68 540.08 149.11 529.47 142.61 518.96 136.63 508.53 131.3 498.22 126.37 488.01 122.27 477.9 119.1 467.89 116.47 457.96 114.77 448.09 114.01 438.29 113.64 428.54 114.02 418.83 115.05 409.17 116.09 399.52 117.48 389.89 119.12 380.31 120.32 370.73 121.52 361.41 122.65 352.37 123.2 343.32 123.73 334.56 124.27 326.09 124.44 317.63 124.84 309.48 125.59 301.67 126.35 293.87 127.71 286.41 129.76 279.32 132.18 272.23 135.44 265.5 139.57 259.14 144.21 252.77 149.71 246.74 155.99 241.06 162.69 235.31 170.04 229.87 177.91 224.71 185.97 219.41 194.36 214.33 202.99 209.45 211.54 204.34 220.18 199.35 228.83 194.46 237.24 189.25 245.62 184.08 253.95 178.94 261.96 173.45 269.96 167.95 277.94 162.48 285.66 156.68 293.43 150.93 301.31 145.29 308.98 139.44 316.84 133.79 324.91 128.44 332.84 123.07 341.06 118.15 349.58 113.77 358.03 109.61 366.84 106.16 376.02 103.52 385.16 101.31 394.72 100.02 404.7 99.72" stroke-dasharray="2 5" transform="rotate(0, 400, 400)" opacity="0.84"></path><path d="M411.46 110.31C421.22 110.53 431.14 111.71 441.2 113.77 451.28 116.26 461.5 119.53 471.81 123.5 482.12 127.71 492.48 132.47 502.81 137.68 513.06 142.92 523.18 148.48 533.05 154.26 542.69 159.89 551.91 165.65 560.57 171.49 568.77 177.04 576.2 182.64 582.7 188.25 588.54 193.53 593.31 198.84 596.89 204.18 600.67 211.76 602.25 227.04 601 234.9 600.03 242.72 601.75 259.48 606.36 268.54 611.75 274.64 618.73 281.08 627.26 287.85 637.37 294.61 648.52 301.71 660.24 309.14 672.17 316.56 683.5 324.32 693.5 332.4 701.89 340.47 707.79 348.86 710.72 357.55 710.92 366.23 707.9 375.21 701.79 384.48 693.61 393.75 683.62 403.11 672.64 412.52 661.77 421.95 651.39 431.46 642.16 441.04 634.85 450.66 629.44 460.36 626.03 470.15 624.96 480 625.6 489.96 627.59 499.99 631.02 510.09 634.89 520.29 638.68 530.53 642.53 540.82 645.43 551.14 647.04 561.42 647.68 571.67 646.62 581.81 643.82 591.74 639.71 601.52 633.95 610.96 626.71 619.95 618.42 628.59 609.01 636.62 598.75 643.89 587.93 650.62 576.63 656.45 565.1 661.26 553.43 665.38 541.78 668.4 530.27 670.26 518.88 671.42 507.73 671.47 496.88 670.44 486.21 668.93 475.83 666.54 465.71 663.39 455.76 660.19 446.01 656.57 436.46 652.73 426.99 649.38 417.65 646.19 408.42 643.34 399.22 641.47 390.08 640.22 381.02 639.68 371.96 640.37 363.17 641.75 354.66 643.74 346.16 646.71 337.94 649.99 330.05 653.41 322.16 657.3 314.61 660.94 307.41 664.15 300.22 667.28 293.39 669.63 286.93 671.09 280.45 672.05 274.31 671.92 268.49 670.66 262.58 668.7 256.93 665.58 251.49 661.35 245.84 656.44 240.31 650.51 234.85 643.69 229.05 636.33 223.22 628.22 217.34 619.51 211.03 610.47 204.63 600.98 198.14 591.16 191.28 581.2 184.4 571.04 177.56 560.77 170.57 550.49 163.79 540.17 157.35 529.88 151.06 519.65 145.32 509.47 140.27 499.38 135.64 489.37 131.86 479.44 128.98 469.61 126.64 459.84 125.21 450.15 124.67 440.55 124.51 430.99 125.06 421.5 126.22 412.08 127.37 402.68 128.85 393.33 130.54 384.07 131.81 374.8 133.04 365.82 134.2 357.14 134.77 348.46 135.3 340.07 135.81 331.99 135.92 323.91 136.22 316.14 136.81 308.71 137.36 301.28 138.46 294.17 140.18 287.42 142.21 280.64 145.05 274.21 148.69 268.11 152.83 261.97 157.81 256.15 163.57 250.63 169.78 245.02 176.67 239.66 184.12 234.56 191.84 229.29 199.96 224.21 208.37 219.28 216.81 214.12 225.41 209.06 234.08 204.08 242.6 198.79 251.13 193.53 259.63 188.3 267.89 182.74 276.12 177.19 284.33 171.68 292.31 165.88 300.31 160.16 308.37 154.56 316.23 148.79 324.22 143.25 332.38 138.02 340.39 132.8 348.64 128.03 357.13 123.79 365.55 119.79 374.27 116.48 383.31 113.94 392.33 111.83 401.7 110.59 411.45 110.31" stroke-dasharray="11 11" transform="rotate(4.04, 400, 400)" opacity="0.14"></path><path d="M417.02 120.9C426.51 121.11 436.08 122.23 445.73 124.2 455.37 126.57 465.06 129.7 474.76 133.51 484.42 137.56 494.02 142.15 503.47 147.2 512.81 152.3 521.9 157.73 530.63 163.4 539.1 168.95 547.05 174.66 554.36 180.47 561.24 186.04 567.32 191.66 572.48 197.31 578.91 205.36 586.03 221.18 586.97 229.04 587.07 236.64 586.66 252.3 587.77 260.51 589.99 265.94 593.31 271.64 597.92 277.61 604.19 283.52 611.86 289.73 620.8 296.24 631.02 302.73 641.98 309.53 653.23 316.66 664.48 323.76 674.98 331.19 684.1 338.93 691.63 346.67 696.81 354.71 699.24 363.07 699.18 371.42 696.18 380.08 690.36 389.04 682.67 398 673.28 407.07 662.93 416.22 652.58 425.38 642.57 434.64 633.48 443.99 626.02 453.36 620.2 462.83 616.15 472.38 614.22 481.98 613.9 491.66 614.92 501.41 617.41 511.2 620.5 521.05 623.74 530.9 627.29 540.77 630.22 550.61 632.19 560.35 633.49 570.03 633.39 579.53 631.78 588.76 629.08 597.81 624.85 606.47 619.19 614.63 612.54 622.44 604.71 629.61 595.92 636.03 586.49 641.93 576.42 646.95 565.93 651.01 555.16 654.46 544.23 656.87 533.28 658.23 522.31 659 511.46 658.77 500.8 657.57 490.25 656 479.91 653.66 469.82 650.67 459.85 647.68 450.09 644.35 440.55 640.84 431.09 637.81 421.8 634.93 412.69 632.36 403.6 630.7 394.65 629.59 385.85 629.1 377.04 629.72 368.57 630.96 360.43 632.74 352.29 635.42 344.47 638.39 336.99 641.49 329.5 645.06 322.35 648.42 315.55 651.42 308.72 654.4 302.22 656.72 296.05 658.24 289.81 659.38 283.85 659.54 278.16 658.69 272.32 657.24 266.66 654.73 261.16 651.19 255.4 647.03 249.71 641.91 244.03 635.92 238 629.41 231.93 622.16 225.78 614.29 219.25 606.06 212.64 597.34 205.97 588.25 199.01 578.98 192.07 569.44 185.24 559.74 178.33 549.99 171.69 540.14 165.45 530.27 159.42 520.41 153.98 510.57 149.24 500.79 144.95 491.05 141.49 481.38 138.93 471.8 136.89 462.26 135.73 452.8 135.42 443.44 135.45 434.12 136.15 424.87 137.42 415.71 138.67 406.58 140.22 397.52 141.97 388.56 143.28 379.61 144.56 370.95 145.74 362.61 146.35 354.25 146.88 346.2 147.37 338.47 147.45 330.73 147.67 323.3 148.14 316.2 148.52 309.07 149.37 302.27 150.79 295.79 152.46 289.28 154.88 283.07 158.05 277.18 161.68 271.22 166.12 265.54 171.32 260.13 176.99 254.6 183.35 249.3 190.31 244.21 197.59 238.94 205.33 233.83 213.42 228.85 221.63 223.63 230.06 218.49 238.64 213.41 247.14 208.05 255.71 202.71 264.29 197.4 272.7 191.8 281.1 186.22 289.49 180.7 297.68 174.92 305.88 169.25 314.11 163.72 322.17 158.06 330.32 152.64 338.57 147.55 346.7 142.49 354.99 137.88 363.48 133.8 371.89 129.96 380.55 126.79 389.46 124.36 398.35 122.34 407.53 121.17 417.01 120.9" stroke-dasharray="7 3" transform="rotate(8.08, 400, 400)" opacity="0.22"></path><path d="M420.82 131.48C429.98 131.68 439.15 132.74 448.3 134.62 457.44 136.87 466.53 139.86 475.51 143.5 484.45 147.38 493.21 151.8 501.73 156.67 510.11 161.61 518.15 166.89 525.73 172.44 533.06 177.89 539.82 183.52 545.89 189.27 551.59 194.82 556.52 200.45 560.58 206.12 565.63 214.24 571.07 230.28 571.89 238.24 572.46 245.93 574.34 261.66 577.06 269.81 580.36 275.19 584.71 280.79 590.25 286.63 597.25 292.39 605.41 298.43 614.6 304.74 624.77 311.01 635.41 317.57 646.11 324.43 656.63 331.26 666.28 338.41 674.53 345.85 681.25 353.28 685.76 361.02 687.72 369.06 687.43 377.1 684.46 385.45 678.94 394.1 671.71 402.76 662.91 411.53 653.17 420.39 643.36 429.26 633.74 438.24 624.84 447.31 617.32 456.39 611.18 465.57 606.59 474.82 603.9 484.09 602.7 493.44 602.78 502.82 604.32 512.22 606.57 521.63 609.15 531.02 612.24 540.38 614.98 549.66 617.06 558.8 618.76 567.83 619.33 576.64 618.65 585.14 617.12 593.42 614.21 601.28 609.99 608.62 604.86 615.6 598.57 621.94 591.27 627.54 583.3 632.66 574.58 636.94 565.3 640.32 555.65 643.15 545.68 645.04 535.53 645.97 525.27 646.41 514.98 645.96 504.77 644.66 494.57 643.07 484.52 640.81 474.65 638 464.85 635.24 455.24 632.2 445.84 629.01 436.5 626.29 427.35 623.71 418.39 621.41 409.47 619.94 400.72 618.95 392.15 618.51 383.58 619.08 375.37 620.19 367.53 621.77 359.67 624.18 352.15 626.84 344.98 629.63 337.78 632.88 330.91 635.96 324.36 638.74 317.75 641.55 311.44 643.79 305.41 645.35 299.27 646.6 293.37 646.99 287.66 646.48 281.77 645.47 276.01 643.5 270.34 640.58 264.41 637.11 258.49 632.73 252.55 627.53 246.29 621.84 239.96 615.42 233.57 608.37 226.85 600.97 220.08 593.05 213.3 584.71 206.29 576.17 199.37 567.32 192.62 558.26 185.87 549.09 179.44 539.79 173.46 530.42 167.74 521.03 162.63 511.61 158.24 502.21 154.32 492.83 151.21 483.49 148.98 474.22 147.24 464.98 146.33 455.81 146.24 446.73 146.45 437.68 147.29 428.71 148.67 419.85 150 411 151.61 402.23 153.39 393.59 154.75 384.94 156.06 376.59 157.27 368.56 157.92 360.52 158.47 352.79 158.97 345.36 159.03 337.92 159.21 330.78 159.57 323.96 159.81 317.1 160.46 310.54 161.61 304.29 162.95 297.99 164.96 291.96 167.67 286.22 170.79 280.39 174.69 274.81 179.32 269.46 184.41 263.99 190.19 258.71 196.59 253.6 203.35 248.31 210.61 243.15 218.28 238.1 226.14 232.82 234.28 227.6 242.62 222.44 250.99 217.01 259.46 211.62 268 206.26 276.45 200.63 284.91 195.05 293.38 189.54 301.71 183.81 310.04 178.21 318.39 172.77 326.6 167.24 334.86 161.97 343.18 157.02 351.41 152.14 359.74 147.7 368.2 143.79 376.61 140.12 385.18 137.09 393.94 134.78 402.68 132.86 411.64 131.74 420.8 131.48" stroke-dasharray="4 2" transform="rotate(12.12, 400, 400)" opacity="0.26"></path><path d="M422.45 142.07C431.25 142.26 439.96 143.26 448.56 145.03 457.14 147.17 465.57 150.01 473.81 153.48 481.98 157.18 489.9 161.42 497.48 166.1 504.92 170.87 511.94 175.98 518.46 181.37 524.75 186.7 530.45 192.23 535.47 197.9 540.2 203.41 544.21 209 547.46 214.66 551.56 222.83 556.24 239.02 557.37 247.07 558.71 254.86 563.18 270.68 567.46 278.82 571.74 284.16 576.99 289.7 583.3 295.46 590.84 301.12 599.32 307.02 608.57 313.17 618.55 319.26 628.77 325.63 638.84 332.27 648.59 338.87 657.4 345.76 664.8 352.94 670.75 360.1 674.62 367.55 676.16 375.31 675.67 383.05 672.75 391.09 667.51 399.44 660.74 407.79 652.51 416.25 643.37 424.8 634.1 433.36 624.9 442.02 616.24 450.76 608.73 459.51 602.37 468.34 597.33 477.22 593.98 486.12 591.98 495.06 591.19 504 591.8 512.93 593.18 521.85 595.03 530.69 597.52 539.48 599.9 548.15 601.87 556.63 603.71 564.98 604.69 573.06 604.68 580.8 604.03 588.3 602.21 595.36 599.21 601.89 595.45 608.06 590.57 613.61 584.69 618.45 578.17 622.84 570.84 626.45 562.86 629.22 554.46 631.51 545.61 632.95 536.45 633.53 527.1 633.7 517.59 633.08 508.04 631.73 498.44 630.16 488.88 628.02 479.43 625.4 469.99 622.88 460.69 620.12 451.57 617.24 442.48 614.82 433.56 612.53 424.83 610.47 416.13 609.19 407.6 608.32 399.26 607.92 390.92 608.44 382.95 609.42 375.33 610.82 367.7 612.97 360.41 615.35 353.44 617.84 346.43 620.78 339.72 623.58 333.31 626.12 326.81 628.75 320.57 630.88 314.56 632.42 308.41 633.75 302.45 634.31 296.63 634.08 290.61 633.44 284.67 631.92 278.78 629.55 272.63 626.7 266.47 623.01 260.28 618.53 253.79 613.62 247.25 607.99 240.66 601.74 233.82 595.15 226.95 588.03 220.13 580.47 213.17 572.68 206.34 564.55 199.75 556.16 193.22 547.65 187.08 538.96 181.41 530.15 176.05 521.29 171.33 512.36 167.32 503.42 163.78 494.47 161.03 485.53 159.13 476.64 157.69 467.76 157.03 458.93 157.14 450.18 157.52 441.45 158.49 432.8 159.95 424.24 161.35 415.7 163 407.25 164.82 398.91 166.22 390.57 167.56 382.53 168.79 374.79 169.48 367.05 170.07 359.6 170.58 352.44 170.66 345.27 170.81 338.39 171.1 331.8 171.23 325.17 171.71 318.81 172.62 312.74 173.66 306.6 175.3 300.72 177.59 295.07 180.22 289.35 183.57 283.83 187.63 278.51 192.12 273.06 197.29 267.78 203.08 262.64 209.25 257.32 215.95 252.11 223.1 246.99 230.49 241.65 238.22 236.37 246.21 231.14 254.29 225.67 262.54 220.23 270.9 214.84 279.24 209.23 287.64 203.66 296.06 198.19 304.41 192.55 312.77 187.04 321.14 181.72 329.42 176.34 337.72 171.23 346.05 166.45 354.31 161.76 362.64 157.5 371.03 153.77 379.38 150.27 387.84 147.39 396.4 145.2 404.95 143.37 413.64 142.31 422.44 142.07" stroke-dasharray="8 4" transform="rotate(16.16, 400, 400)" opacity="0.23"></path><path d="M421.75 152.66C430.14 152.83 438.35 153.78 446.37 155.45 454.36 157.47 462.13 160.16 469.61 163.45 477.04 166.97 484.13 171.01 490.83 175.49 497.4 180.07 503.51 185 509.11 190.21 514.51 195.4 519.34 200.8 523.54 206.36 527.53 211.79 530.89 217.33 533.62 222.94 537.2 231.11 541.97 247.39 543.73 255.5 545.25 260.72 546.89 266.02 548.84 271.41 551.57 276.62 554.9 281.96 558.95 287.43 564.08 292.77 570.08 298.28 576.96 303.96 584.86 309.55 593.48 315.35 602.65 321.37 612.3 327.33 622 333.53 631.4 339.98 640.35 346.38 648.32 353.05 654.9 359.99 660.12 366.9 663.41 374.1 664.56 381.56 663.9 389.02 661.04 396.77 656.09 404.8 649.76 412.83 642.09 420.97 633.53 429.18 624.81 437.41 616.05 445.71 607.67 454.08 600.24 462.46 593.74 470.89 588.36 479.35 584.46 487.81 581.75 496.29 580.15 504.73 579.88 513.15 580.39 521.5 581.46 529.75 583.27 537.92 585.13 545.94 586.81 553.72 588.56 561.36 589.71 568.7 590.09 575.66 590.06 582.4 589.06 588.68 587.05 594.42 584.43 599.84 580.79 604.64 576.21 608.77 571.05 612.5 565.06 615.5 558.38 617.73 551.27 619.56 543.62 620.62 535.56 620.91 527.26 620.88 518.7 620.16 509.98 618.79 501.15 617.28 492.26 615.28 483.39 612.87 474.5 610.59 465.66 608.11 456.94 605.54 448.23 603.4 439.65 601.38 431.22 599.56 422.81 598.45 414.54 597.69 406.44 597.33 398.35 597.8 390.59 598.67 383.17 599.89 375.73 601.8 368.59 603.91 361.75 606.11 354.86 608.75 348.24 611.27 341.86 613.57 335.4 616 329.13 618 323.05 619.49 316.83 620.84 310.74 621.52 304.74 621.5 298.55 621.16 292.41 620.03 286.29 618.13 279.92 615.83 273.54 612.75 267.12 608.95 260.46 604.74 253.77 599.87 247.06 594.38 240.16 588.57 233.29 582.23 226.52 575.44 219.68 568.42 213.04 561.03 206.69 553.35 200.46 545.53 194.66 537.48 189.37 529.28 184.41 521.01 180.1 512.64 176.5 504.2 173.35 495.75 170.97 487.27 169.39 478.8 168.24 470.34 167.84 461.91 168.13 453.53 168.67 445.16 169.74 436.86 171.27 428.64 172.73 420.43 174.41 412.3 176.24 404.28 177.67 396.25 179.04 388.51 180.31 381.06 181.04 373.6 181.67 366.41 182.21 359.51 182.32 352.58 182.47 345.92 182.72 339.53 182.77 333.1 183.12 326.91 183.83 320.97 184.61 314.97 185.92 309.19 187.81 303.63 189.98 297.97 192.82 292.49 196.31 287.18 200.19 281.75 204.74 276.44 209.9 271.27 215.42 265.92 221.5 260.66 228.05 255.48 234.87 250.1 242.08 244.77 249.6 239.49 257.26 234 265.15 228.56 273.19 223.17 281.28 217.59 289.47 212.08 297.72 206.68 305.95 201.14 314.21 195.76 322.48 190.58 330.71 185.37 338.95 180.44 347.19 175.85 355.4 171.35 363.63 167.29 371.88 163.73 380.11 160.41 388.38 157.68 396.69 155.61 405 153.89 413.35 152.89 421.74 152.66" stroke-dasharray="2 5" transform="rotate(20.200000000000003, 400, 400)" opacity="0.89"></path><path d="M418.79 163.25C426.73 163.4 434.42 164.29 441.85 165.87 449.26 167.77 456.37 170.3 463.15 173.4 469.87 176.74 476.22 180.57 482.14 184.84 487.96 189.22 493.32 193.95 498.16 198.97 502.87 203.99 507.05 209.23 510.68 214.65 514.18 219.97 517.16 225.42 519.63 230.96 523.11 239.08 528.63 255.35 531.27 263.49 533.5 268.75 535.96 274.09 538.8 279.49 542.41 284.74 546.61 290.1 551.49 295.56 557.31 300.9 563.87 306.38 571.15 312.01 579.22 317.55 587.82 323.27 596.76 329.18 605.98 335.03 615.08 341.08 623.74 347.36 631.9 353.59 639.04 360.07 644.84 366.78 649.37 373.47 652.12 380.41 652.93 387.6 652.12 394.78 649.34 402.23 644.67 409.94 638.77 417.65 631.63 425.44 623.65 433.3 615.47 441.16 607.17 449.08 599.12 457.04 591.82 465.01 585.28 473 579.65 480.99 575.3 488.97 571.98 496.93 569.67 504.82 568.58 512.68 568.26 520.44 568.53 528.05 569.59 535.58 570.85 542.91 572.09 549.98 573.56 556.9 574.65 563.5 575.19 569.71 575.29 578.46 570.75 593 565.97 598.54 559.63 602.92 542.71 607.73 532.56 608.18 525.38 608 517.84 607.22 510.06 605.88 502.13 604.46 494.04 602.61 485.88 600.42 477.66 598.39 469.42 596.18 461.22 593.9 453 592.04 444.85 590.27 436.79 588.68 428.74 587.72 420.79 587.06 412.96 586.75 405.13 587.17 397.6 587.93 390.35 588.99 383.07 590.67 376.06 592.52 369.3 594.45 362.49 596.79 355.9 599.04 349.5 601.11 343.02 603.32 336.69 605.17 330.49 606.58 324.16 607.91 317.91 608.66 311.73 608.8 305.37 608.68 299.03 607.88 292.7 606.38 286.17 604.55 279.61 602.02 273.04 598.81 266.28 595.25 259.52 591.06 252.78 586.29 245.93 581.22 239.16 575.63 232.53 569.59 225.91 563.33 219.55 556.68 213.51 549.71 207.65 542.6 202.25 535.23 197.38 527.67 192.87 520.03 188.98 512.25 185.8 504.37 183.06 496.46 181.05 488.49 179.79 480.5 178.92 472.5 178.74 464.5 179.21 456.54 179.88 448.57 181.05 440.65 182.63 432.79 184.12 424.94 185.83 417.15 187.67 409.45 189.12 401.75 190.51 394.31 191.8 387.13 192.59 379.94 193.27 373.01 193.85 366.34 194 359.64 194.17 353.18 194.41 346.96 194.42 340.7 194.66 334.66 195.21 328.83 196.3 320.1 201.27 303.41 205.41 295.38 208.7 289.95 212.62 284.63 217.13 279.42 221.99 274.05 227.4 268.76 233.3 263.53 239.48 258.13 246.08 252.78 253.02 247.49 260.15 242.01 267.55 236.59 275.14 231.23 282.84 225.72 290.68 220.3 298.61 215 306.57 209.6 314.58 204.37 322.63 199.35 330.66 194.33 338.72 189.59 346.77 185.2 354.8 180.92 362.84 177.06 370.86 173.69 378.88 170.55 386.89 167.97 394.88 166.03 402.87 164.4 410.85 163.46 418.78 163.25" stroke-dasharray="9 5" transform="rotate(24.24, 400, 400)" opacity="0.11"></path><path d="M413.89 173.83C421.34 173.98 428.51 174.81 435.37 176.28 442.21 178.06 448.72 180.44 454.86 183.36 460.96 186.5 466.67 190.12 471.95 194.17 477.16 198.33 481.92 202.85 486.22 207.65 490.44 212.48 494.2 217.54 497.49 222.79 500.75 227.98 503.59 233.3 506.06 238.74 508.6 244.05 510.88 249.45 512.99 254.91 515.36 260.23 517.72 265.6 520.18 271.03 523.15 276.31 526.42 281.65 530.1 287.06 534.49 292.33 539.44 297.68 544.99 303.13 551.32 308.47 558.26 313.92 565.75 319.5 573.83 325 582.25 330.65 590.83 336.45 599.52 342.2 607.96 348.13 615.87 354.25 623.22 360.33 629.56 366.61 634.62 373.11 638.51 379.58 640.77 386.27 641.26 393.19 640.33 400.1 637.64 407.24 633.24 414.62 627.76 421.99 621.14 429.42 613.73 436.89 606.09 444.37 598.26 451.88 590.57 459.4 583.47 466.92 576.95 474.44 571.18 481.92 566.48 489.39 562.66 496.8 559.73 504.11 557.89 511.38 556.8 518.52 556.29 525.47 556.59 532.34 557.17 538.98 557.86 545.34 559.33 554.5 560.59 570.6 559.72 577.33 557.71 583.14 549.38 591.43 543.16 593.82 538.44 594.93 533.13 595.44 527.3 595.35 521.22 595.08 514.73 594.28 507.92 593 500.94 591.69 493.73 590.02 486.36 588.06 478.91 586.27 471.35 584.34 463.75 582.34 456.12 580.72 448.48 579.19 440.86 577.81 433.25 577 425.66 576.44 418.14 576.16 410.61 576.54 403.31 577.2 396.23 578.1 389.14 579.57 382.25 581.18 375.55 582.86 368.81 584.92 362.23 586.9 355.8 588.72 349.28 590.71 342.88 592.39 336.57 593.7 330.14 594.97 323.76 595.75 317.42 595.99 310.93 596.05 304.45 595.5 297.97 594.34 291.34 592.9 284.7 590.83 278.07 588.15 271.31 585.18 264.58 581.61 257.92 577.49 251.22 573.12 244.64 568.23 238.26 562.91 231.96 557.37 225.94 551.44 220.29 545.18 214.87 538.78 209.92 532.1 205.51 525.2 201.46 518.21 198.03 511.04 195.27 503.76 192.93 496.42 191.27 488.99 190.32 481.51 189.72 474.02 189.75 466.49 190.38 458.97 191.17 451.44 192.41 443.93 194.03 436.45 195.54 428.98 197.26 421.55 199.09 414.18 200.56 406.82 201.97 399.68 203.29 392.78 204.13 385.87 204.86 379.18 205.49 372.72 205.7 366.24 205.91 359.97 206.16 353.91 206.25 344.86 207.58 327.58 209.2 319.3 210.58 313.75 212.5 308.33 214.96 303.03 217.7 297.61 221.01 292.29 224.89 287.06 229.08 281.68 233.8 276.38 239.01 271.14 244.51 265.75 250.43 260.41 256.72 255.13 263.22 249.7 270.02 244.33 277.06 239.04 284.23 233.64 291.58 228.33 299.06 223.16 306.61 217.93 314.25 212.87 321.93 208.05 329.64 203.23 337.38 198.71 345.11 194.53 352.85 190.47 360.59 186.82 368.28 183.64 375.99 180.68 383.66 178.26 391.26 176.44 398.88 174.91 406.42 174.03 413.88 173.83" stroke-dasharray="9 1" transform="rotate(28.28, 400, 400)" opacity="0.39"></path><path d="M407.54 184.42C414.5 184.55 421.15 185.32 427.48 186.7 433.79 188.35 439.76 190.57 445.37 193.31 450.94 196.25 456.13 199.66 460.93 203.47 465.69 207.41 470.04 211.69 473.99 216.27 477.92 220.89 481.46 225.74 484.64 230.79 487.85 235.81 490.76 240.98 493.43 246.27 496.23 251.47 498.9 256.77 501.51 262.15 504.43 267.41 507.43 272.73 510.62 278.11 514.3 283.37 518.31 288.69 522.72 294.07 527.76 299.33 533.29 304.67 539.33 310.08 545.99 315.4 553.12 320.82 560.64 326.34 568.57 331.78 576.68 337.35 584.79 343.06 592.87 348.71 600.61 354.51 607.75 360.47 614.3 366.4 619.87 372.5 624.24 378.78 627.53 385.04 629.34 391.49 629.56 398.13 628.54 404.76 625.94 411.59 621.82 418.62 616.73 425.64 610.62 432.7 603.76 439.77 596.65 446.84 589.31 453.91 582.01 460.97 575.16 468.02 568.75 475.03 562.91 481.99 557.97 488.91 553.76 495.76 550.31 502.47 547.83 509.13 546.03 515.64 544.79 521.94 544.28 531.13 545.04 547.91 545.51 555.3 544.83 567.36 537.62 579.61 532.73 581.49 526.83 582.51 512.04 581.76 503.42 580.19 497.39 579.02 491.07 577.53 484.51 575.8 477.87 574.24 471.04 572.57 464.09 570.84 457.11 569.47 450.04 568.16 442.91 566.97 435.78 566.29 428.61 565.82 421.43 565.57 414.24 565.91 407.21 566.47 400.33 567.24 393.44 568.51 386.69 569.89 380.07 571.33 373.42 573.12 366.87 574.85 360.43 576.44 353.91 578.2 347.47 579.7 341.08 580.88 334.6 582.07 328.14 582.83 321.71 583.13 315.17 583.3 308.63 582.94 302.1 582.05 295.47 580.94 288.86 579.26 282.27 577.04 275.63 574.57 269.05 571.55 262.59 568.03 256.14 564.28 249.86 560.05 243.82 555.39 237.92 550.54 232.33 545.31 227.13 539.73 222.19 534.02 217.73 528.02 213.8 521.78 210.23 515.44 207.26 508.91 204.93 502.22 202.98 495.48 201.67 488.62 201.01 481.68 200.65 474.71 200.87 467.68 201.63 460.62 202.52 453.56 203.82 446.48 205.46 439.41 206.99 432.34 208.7 425.28 210.51 418.26 211.99 411.24 213.42 404.41 214.75 397.79 215.64 391.16 216.43 384.72 217.12 378.47 217.4 372.21 217.66 366.12 217.94 360.21 218.04 351.38 219.07 334.41 220.34 326.22 222.18 318.03 228.57 302.02 233.22 294.14 236.76 288.79 240.81 283.51 245.33 278.29 250.11 272.94 255.33 267.64 260.91 262.42 266.72 257.07 272.85 251.79 279.24 246.62 285.78 241.34 292.54 236.19 299.46 231.19 306.47 226.14 313.6 221.29 320.8 216.67 328.06 212.09 335.35 207.79 342.66 203.83 349.99 200 357.32 196.56 364.6 193.58 371.9 190.81 379.15 188.55 386.31 186.85 393.49 185.43 400.57 184.6 407.53 184.42" stroke-dasharray="7 9" transform="rotate(32.32, 400, 400)" opacity="0.24"></path><path d="M400.41 195.01C406.87 195.13 413.03 195.84 418.88 197.12 427.47 199.68 442.95 207.6 449.82 212.76 456.33 218.48 467.72 231.53 472.72 238.67 476.04 243.49 479.17 248.47 482.16 253.59 485.34 258.64 488.48 263.8 491.64 269.05 495.13 274.21 498.77 279.45 502.62 284.74 506.93 289.94 511.57 295.2 516.57 300.52 522.1 305.73 528.04 311.02 534.37 316.38 541.19 321.65 548.33 327.01 555.71 332.45 563.34 337.83 571.02 343.31 578.57 348.9 586 354.44 593 360.11 599.37 365.91 605.15 371.67 609.99 377.59 613.7 383.64 616.44 389.68 617.85 395.88 617.84 402.23 616.74 408.58 614.24 415.09 610.39 421.75 605.7 428.42 600.07 435.08 593.74 441.73 587.17 448.38 580.32 455 573.44 461.57 566.89 468.14 560.63 474.64 554.82 481.04 549.74 487.42 545.25 493.69 541.39 499.8 537.16 508.8 532.48 525.62 531.52 533.28 531.33 546.55 529.54 561.8 527.5 565.03 520.41 568.61 503.91 568.89 496.61 567.46 491.47 566.43 485.99 565.14 480.22 563.63 474.38 562.31 468.29 560.89 462.01 559.41 455.7 558.26 449.22 557.16 442.62 556.15 436.01 555.59 429.29 555.2 422.49 554.98 415.69 555.28 408.97 555.76 402.33 556.4 395.68 557.49 389.11 558.66 382.62 559.87 376.1 561.41 369.64 562.88 363.23 564.24 356.78 565.78 350.36 567.09 343.97 568.14 337.52 569.21 331.08 569.92 324.65 570.24 318.16 570.48 311.67 570.25 305.21 569.56 298.7 568.71 292.22 567.36 285.82 565.51 279.4 563.48 273.09 560.95 266.93 557.95 260.84 554.76 254.96 551.12 249.35 547.07 243.91 542.86 238.81 538.27 234.12 533.35 229.69 528.3 225.74 522.95 222.32 517.35 219.24 511.66 216.72 505.75 214.81 499.66 213.23 493.53 212.24 487.24 211.85 480.84 211.72 474.42 212.1 467.9 212.97 461.33 213.95 454.75 215.28 448.12 216.92 441.47 218.45 434.82 220.15 428.15 221.94 421.49 223.41 414.83 224.84 408.32 226.19 401.98 227.13 395.64 227.97 389.45 228.73 383.43 229.25 374.44 229.9 357.14 230.31 348.8 230.75 340.5 233.19 324.34 235.43 316.43 237.22 311.1 239.47 305.85 242.19 300.66 245.12 295.37 248.53 290.14 252.37 284.98 256.46 279.71 260.95 274.5 265.82 269.37 270.9 264.14 276.31 259 282 253.96 287.85 248.86 293.94 243.89 300.2 239.08 306.59 234.26 313.11 229.63 319.73 225.24 326.42 220.9 333.18 216.84 339.96 213.12 346.78 209.52 353.6 206.31 360.39 203.53 367.21 200.94 373.97 198.84 380.65 197.26 387.35 195.94 393.94 195.18 400.4 195.01" stroke-dasharray="2 3" transform="rotate(36.36, 400, 400)" opacity="0.67"></path><path d="M393.24 205.6C402.07 206.03 418.33 209.9 425.73 213.21 435.39 218.47 443.92 225.3 451.4 233.35 459.06 241.66 466.03 250.87 472.61 260.7 480.01 270.39 487.72 280.52 496.16 290.93 506.2 301.02 517.47 311.4 529.96 322 543.81 332.31 558.18 342.95 572.12 353.9 585.26 364.68 595.99 375.91 603 387.57 605.24 393.38 606.3 399.31 606.09 405.36 604.94 411.41 602.55 417.59 598.97 423.88 594.65 430.17 589.49 436.44 583.68 442.65 577.62 448.86 571.27 455.02 564.83 461.1 552.78 473.23 541.91 484.96 532.92 496.06 526.77 506.94 522.5 516.98 519.63 525.88 518.2 537.88 513.72 553.35 507.9 556.32 502.95 557.28 496.17 556.72 487.76 554.82 478.92 553.17 468.74 550.8 457.52 548.04 451.85 547.1 445.98 546.19 439.92 545.35 433.85 544.9 427.61 544.58 421.23 544.4 414.84 544.66 408.47 545.06 402.12 545.59 395.77 546.5 389.43 547.48 383.13 548.48 370.48 551.34 357.86 553.79 345.32 555.48 332.65 557.4 319.99 557.94 307.48 556.94 294.94 555.5 282.71 552.26 271.13 547.32 259.97 541.76 249.9 534.59 241.35 526.05 233.84 517.08 228.27 506.97 224.91 496.04 222.73 484.9 222.61 473.13 224.41 460.98 225.44 454.88 226.79 448.72 228.43 442.5 229.94 436.28 231.6 430.02 233.36 423.72 234.83 417.43 236.26 411.26 237.62 405.22 238.6 399.17 239.49 393.25 240.31 387.46 240.85 375.82 241.4 364.63 242.22 353.89 242.49 342.98 243.78 332.38 246.34 322.13 249.31 311.59 253.97 301.26 260.22 291.22 267.27 280.85 275.83 270.76 285.61 261.11 296.01 251.29 307.33 242.08 319.19 233.76 331.37 225.68 343.85 218.8 356.3 213.47 362.57 211.08 368.81 209.13 374.98 207.68 381.16 206.45 387.25 205.75 393.23 205.6" stroke-dasharray="1 5" transform="rotate(40.400000000000006, 400, 400)" opacity="0.69"></path><path d="M386.77 216.18C397.8 216.6 407.92 219.01 417.1 223.17 426.29 228.01 434.64 234.34 442.24 241.84 450.11 249.63 457.59 258.32 464.96 267.64 473.14 276.91 481.78 286.65 491.13 296.7 501.79 306.52 513.44 316.63 525.92 326.94 539.27 337.03 552.72 347.41 565.39 358.02 577.06 368.5 586.33 379.34 592.15 390.48 594.97 401.59 593.46 413.08 587.54 424.9 579.12 436.72 568.2 448.29 556.18 459.48 544.77 470.62 534.11 481.27 524.87 491.22 517.97 500.98 512.67 509.86 508.68 517.62 505.57 528.05 499.72 541.19 494.46 543.6 490.28 544.41 484.53 543.93 477.3 542.3 469.75 540.98 460.87 539.04 450.86 536.75 440.72 535.54 429.63 534.51 417.75 533.81 405.88 534.66 393.83 535.83 381.76 537.16 369.67 539.55 357.5 541.57 345.37 542.94 333.2 544.59 321.07 545.07 309.16 544.24 297.37 543.11 286 540.42 275.37 536.21 265.29 531.52 256.33 525.35 248.9 517.9 242.47 510.06 237.85 501.12 235.28 491.32 233.7 481.32 233.96 470.64 235.92 459.47 238.05 448.26 241.13 436.67 244.79 424.86 247.36 413.04 249.76 401.56 251.86 390.48 252.6 379.35 253.31 368.55 254.2 358.11 254.46 347.53 255.54 337.2 257.65 327.16 259.97 316.89 263.74 306.82 268.92 297.04 274.71 287.03 281.92 277.32 290.31 268.07 299.24 258.75 309.13 250.06 319.63 242.25 330.46 234.71 341.67 228.33 352.97 223.42 364.38 219.19 375.73 216.7 386.76 216.18" stroke-dasharray="7 7" transform="rotate(44.44, 400, 400)" opacity="0.73"></path><path d="M381.67 226.77C391.83 227.14 401.33 229.33 410.14 233.13 418.99 237.56 427.28 243.38 435.1 250.31 443.22 257.55 451.22 265.67 459.29 274.44 468.1 283.22 477.41 292.49 487.34 302.09 498.28 311.54 509.94 321.29 522.07 331.23 534.66 341.01 547 351.04 558.32 361.25 568.53 371.36 576.42 381.74 581.16 392.34 583.29 402.9 581.63 413.74 576.12 424.76 568.46 435.79 558.54 446.48 547.48 456.7 536.77 466.86 526.47 476.47 517.19 485.34 509.78 494.03 503.66 501.85 498.7 508.59 493.98 517.65 486.24 528.85 481.04 530.86 477.25 531.61 472.17 531.24 465.81 529.91 459.25 528.92 451.44 527.38 442.49 525.52 433.45 524.62 423.39 523.82 412.44 523.22 401.49 523.96 390.23 524.89 378.84 525.9 367.46 527.86 355.94 529.47 344.45 530.52 333 531.89 321.63 532.26 310.56 531.51 299.72 530.59 289.38 528.32 279.87 524.71 270.94 520.75 263.16 515.45 256.86 508.96 251.47 502.16 247.77 494.29 245.9 485.55 244.86 476.64 245.45 467 247.53 456.81 249.68 446.57 252.68 435.87 256.21 424.84 258.76 413.81 261.19 402.98 263.37 392.44 264.3 381.86 265.19 371.51 266.21 361.43 266.53 351.25 267.5 341.26 269.3 331.52 271.13 321.61 274.18 311.9 278.45 302.48 283.15 292.9 289.14 283.65 296.23 274.88 303.77 266.11 312.26 257.98 321.43 250.71 330.88 243.74 340.8 237.87 350.95 233.37 361.19 229.5 371.5 227.23 381.67 226.77" stroke-dasharray="5 3" transform="rotate(48.48, 400, 400)" opacity="0.57"></path><path d="M378.47 237.36C387.83 237.68 396.78 239.66 405.29 243.11 413.86 247.13 422.13 252.43 430.18 258.79 438.52 265.45 446.92 272.97 455.51 281.13 464.71 289.35 474.39 298.08 484.56 307.15 495.43 316.15 506.76 325.45 518.23 334.93 529.84 344.3 540.95 353.9 550.87 363.63 559.67 373.29 566.27 383.16 570.03 393.15 571.56 403.12 569.79 413.26 564.69 423.48 557.77 433.7 548.81 443.5 538.72 452.77 528.78 462 518.97 470.61 509.82 478.47 502.12 486.19 495.43 493.05 489.7 498.89 483.54 506.76 473.65 516.4 468.15 518.16 464.42 518.9 459.71 518.69 453.92 517.66 448.06 516.98 441.09 515.83 433.05 514.36 424.95 513.74 415.85 513.14 405.84 512.63 395.83 513.26 385.44 513.99 374.87 514.72 364.34 516.28 353.65 517.5 343.01 518.24 332.47 519.31 322.07 519.53 312.03 518.8 302.29 518 293.11 516.04 284.81 512.92 277.08 509.55 270.49 504.99 265.29 499.34 260.9 493.45 258.03 486.55 256.8 478.79 256.22 470.89 257.07 462.24 259.21 453 261.35 443.71 264.24 433.89 267.64 423.67 270.14 413.45 272.58 403.31 274.82 393.35 275.95 383.38 277.04 373.53 278.2 363.9 278.66 354.19 279.61 344.62 281.23 335.28 282.73 325.82 285.23 316.55 288.77 307.58 292.56 298.52 297.49 289.8 303.44 281.58 309.72 273.41 316.92 265.87 324.84 259.17 332.97 252.78 341.66 247.42 350.68 243.34 359.79 239.82 369.1 237.77 378.47 237.36" stroke-dasharray="5 11" transform="rotate(52.52, 400, 400)" opacity="0.97"></path><path d="M377.5 247.95C386.13 248.23 394.57 250 402.8 253.1 411.11 256.71 419.33 261.5 427.5 267.27 435.94 273.33 444.56 280.22 453.41 287.73 462.72 295.35 472.43 303.47 482.48 311.94 492.96 320.39 503.65 329.14 514.23 338.08 524.7 346.96 534.49 356.03 543.02 365.21 550.46 374.34 555.88 383.62 558.76 392.96 559.78 402.29 557.96 411.71 553.27 421.11 547.06 430.51 539.01 439.44 529.89 447.8 520.77 456.12 511.54 463.81 502.71 470.75 494.95 477.58 487.91 483.58 481.64 488.65 474.29 495.51 462.28 503.93 456.27 505.55 450.08 506.31 433.73 504.78 423.26 503.27 415.94 502.89 407.71 502.47 398.63 502.05 389.54 502.58 380.09 503.12 370.45 503.6 360.87 504.79 351.17 505.67 341.55 506.11 332.07 506.88 322.78 506.94 313.91 506.18 305.37 505.43 297.43 503.69 290.37 500.94 283.85 498.04 278.41 494.09 274.26 489.16 270.78 484.05 268.65 478.01 267.97 471.15 267.78 464.18 268.82 456.46 270.98 448.13 273.07 439.75 275.83 430.81 279.06 421.41 281.51 412 283.93 402.58 286.22 393.27 287.53 383.94 288.8 374.67 290.13 365.56 290.77 356.4 291.8 347.34 293.33 338.49 294.65 329.57 296.77 320.83 299.76 312.39 302.85 303.93 306.93 295.81 311.91 288.18 317.11 280.66 323.17 273.74 329.96 267.64 336.9 261.83 344.45 256.99 352.44 253.32 360.48 250.15 368.88 248.3 377.5 247.95" stroke-dasharray="7 11" transform="rotate(56.56, 400, 400)" opacity="0.48"></path><path d="M378.87 258.53C386.8 258.77 394.76 260.34 402.68 263.1 410.67 266.31 418.74 270.59 426.89 275.77 435.24 281.23 443.84 287.47 452.65 294.3 461.78 301.25 471.2 308.71 480.79 316.52 490.6 324.35 500.41 332.48 509.89 340.79 519.12 349.08 527.56 357.55 534.74 366.09 540.9 374.62 545.24 383.25 547.37 391.89 547.95 400.53 546.12 409.18 541.84 417.76 536.31 426.34 529.16 434.41 520.98 441.9 512.71 449.36 504.17 456.19 495.79 462.3 488.18 468.33 481.03 473.59 474.45 478 466.24 484.01 452.38 491.5 445.76 493.07 439.26 493.99 423.51 493.28 413.88 492.25 407.19 492.07 399.74 491.8 391.56 491.46 383.37 491.91 374.88 492.28 366.26 492.54 357.7 493.42 349.08 493.98 340.59 494.14 332.25 494.63 324.17 494.5 316.55 493.68 309.23 492.92 302.55 491.32 296.72 488.87 289.17 484.6 280.39 471.47 279.41 462.78 279.52 456.64 280.69 449.79 282.81 442.31 284.83 434.81 287.44 426.73 290.49 418.15 292.85 409.57 295.24 400.91 297.56 392.28 299.02 383.65 300.47 375.03 301.97 366.51 302.83 357.97 303.98 349.52 305.53 341.24 306.78 332.94 308.69 324.82 311.29 316.99 313.88 309.18 317.3 301.72 321.52 294.75 325.84 287.89 330.96 281.63 336.78 276.13 342.69 270.91 349.23 266.57 356.3 263.31 363.39 260.48 370.94 258.84 378.87 258.53" stroke-dasharray="1 5" transform="rotate(60.599999999999994, 400, 400)" opacity="0.23"></path><path d="M382.44 269.12C389.71 269.32 397.15 270.69 404.69 273.13 412.28 275.94 420.06 279.72 427.98 284.31 436.04 289.16 444.35 294.73 452.82 300.86 461.48 307.13 470.31 313.87 479.17 320.96 488.07 328.1 496.8 335.54 505.08 343.15 513.02 350.77 520.12 358.56 526.01 366.41 531 374.26 534.38 382.18 535.86 390.07 536.09 397.97 534.28 405.85 530.41 413.6 525.53 421.34 519.23 428.58 511.98 435.25 504.58 441.9 496.8 447.94 489 453.31 481.72 458.63 474.69 463.24 468.04 467.1 459.32 472.42 444.08 479.2 436.92 480.78 430.04 481.88 414.58 481.91 405.61 481.29 399.45 481.29 392.69 481.15 385.36 480.87 378.03 481.24 370.51 481.47 362.93 481.55 355.41 482.14 347.91 482.43 340.6 482.35 333.44 482.57 326.58 482.26 320.21 481.36 311.37 479.8 297.97 473.02 293.9 467.68 291.47 461.49 292.06 445.42 294.72 435.73 296.63 429.05 299.06 421.8 301.91 414.05 304.17 406.29 306.51 398.41 308.82 390.52 310.41 382.63 312.02 374.71 313.68 366.87 314.75 359.03 316.07 351.25 317.69 343.63 318.99 336.02 320.79 328.58 323.16 321.44 325.44 314.34 328.4 307.58 332.04 301.3 335.69 295.14 340.06 289.55 345.09 284.65 350.16 280.02 355.85 276.19 362.1 273.32 368.37 270.83 375.16 269.39 382.44 269.12" stroke-dasharray="7 7" transform="rotate(64.64, 400, 400)" opacity="0.18"></path><path d="M387.82 279.71C394.45 279.87 401.33 281.06 408.38 283.17 415.47 285.6 422.79 288.89 430.26 292.91 437.83 297.15 445.59 302.05 453.45 307.46 461.39 313.01 469.39 319.01 477.28 325.35 485.11 331.74 492.65 338.43 499.67 345.28 506.3 352.16 512.12 359.2 516.82 366.3 520.76 373.4 523.31 380.56 524.24 387.67 524.19 394.79 522.45 401.87 518.98 408.79 514.72 415.71 509.24 422.15 502.89 428.05 496.37 433.93 489.4 439.25 482.29 443.96 475.5 448.64 468.78 452.7 462.29 456.1 453.44 460.83 437.41 467.08 429.89 468.71 422.71 469.98 407.44 470.66 399.04 470.39 393.33 470.54 387.21 470.5 380.69 470.28 374.17 470.58 367.58 470.7 361.04 470.63 354.54 470.98 348.15 471.03 342.01 470.74 333.15 470.48 317.99 467.66 312.17 464.85 307.54 461.43 302.95 451.25 303.04 444.52 303.53 439.8 304.76 434.46 306.69 428.58 308.46 422.67 310.7 416.23 313.34 409.3 315.48 402.37 317.73 395.29 320.01 388.17 321.68 381.06 323.42 373.9 325.22 366.8 326.5 359.7 327.99 352.66 329.72 345.78 331.12 338.92 332.93 332.23 335.19 325.82 337.29 319.48 339.95 313.46 343.19 307.88 346.38 302.44 350.18 297.51 354.59 293.23 358.98 289.17 363.98 285.83 369.53 283.35 375.08 281.18 381.18 279.93 387.82 279.71" stroke-dasharray="9 3" transform="rotate(68.68, 400, 400)" opacity="0.87"></path><path d="M394.47 290.3C406.45 290.85 419.56 294.88 433.15 301.57 446.92 309.05 461.17 318.74 474.83 329.75 487.97 341.04 499.35 353.37 507.18 365.93 512.56 378.57 512.95 391.36 507.56 403.58 499.7 415.79 488.34 426.19 475.59 434.46 463.51 442.67 451.44 448.74 440.08 452.55 430.04 456.51 420.04 458.59 409.91 458.94 400.19 460.19 389.53 460.42 378.02 459.7 366.5 460.57 355.26 460.46 345.08 459.32 335.26 459.06 327.07 457.03 321.36 453.11 316.44 449.32 314.3 443.25 315.2 435.04 316.31 426.75 319.63 416.34 324.76 404.11 328.28 391.89 332.31 379.09 336.54 366.45 339.05 353.87 342.48 341.53 347.11 330.21 351.06 319.16 356.93 309.42 364.81 301.87 372.55 295.09 382.47 290.96 394.47 290.3" stroke-dasharray="4 9" transform="rotate(72.72, 400, 400)" opacity="0.35"></path><path d="M401.69 300.88C412.36 301.31 424.01 304.68 436 310.32 448.02 316.6 460.21 324.83 471.56 334.26 482.29 343.96 491.26 354.6 497.09 365.5 501.03 376.48 500.91 387.6 496.14 398.2 489.51 408.8 479.88 417.82 468.85 425.02 458.08 432.19 446.95 437.6 436.21 441.14 426.33 444.87 416.52 447.05 406.83 447.76 397.48 449.19 387.69 449.65 377.63 449.11 367.56 449.78 358.16 449.43 349.98 448.09 338.85 446.41 327.14 435.45 327.56 425.58 328.66 418.37 331.62 409.35 336.19 398.74 339.48 388.13 343.39 377 347.61 366.01 350.47 355.1 354.12 344.43 358.72 334.69 362.66 325.23 368.14 316.94 375.25 310.59 382.19 304.87 391.01 301.41 401.69 300.88" stroke-dasharray="7 4" transform="rotate(76.76, 400, 400)" opacity="0.15"></path><path d="M408.73 311.47C418.03 311.79 428.06 314.53 438.19 319.17 448.28 324.3 458.26 331.1 467.25 338.95 475.68 347.03 482.45 355.98 486.57 365.18 489.32 374.46 488.84 383.89 484.71 392.91 479.24 401.92 471.28 409.62 462 415.83 452.73 422.05 442.88 426.84 433.15 430.12 423.93 433.6 414.71 435.81 405.76 436.77 397.04 438.29 388.22 438.91 379.56 438.52 370.89 439.01 363.14 438.5 356.68 437.06 347.92 435.1 339.35 424.95 340.07 416.36 341.08 410.15 343.64 402.45 347.61 393.43 350.62 384.4 354.32 374.96 358.41 365.66 361.47 356.44 365.25 347.47 369.78 339.35 373.75 331.46 378.92 324.61 385.36 319.4 391.63 314.69 399.43 311.87 408.73 311.47" stroke-dasharray="6 4" transform="rotate(80.80000000000001, 400, 400)" opacity="0.45"></path><path d="M414.87 322.06C422.73 322.28 431 324.43 439.16 328.12 447.24 332.17 455 337.59 461.77 343.9 468.07 350.41 472.93 357.65 475.65 365.16 477.44 372.74 476.75 380.48 473.29 387.94 468.91 395.39 462.53 401.83 454.99 407.09 447.35 412.37 439.03 416.55 430.63 419.55 422.49 422.72 414.29 424.88 406.37 425.99 398.59 427.5 390.9 428.19 383.61 427.93 373.18 427.97 358.2 424.13 354.26 419.95 351.94 414.91 354.61 399.09 359.04 388.42 361.7 380.95 365.08 373.2 368.9 365.6 372 358.07 375.75 350.8 380.1 344.26 384.01 337.91 388.85 332.44 394.62 328.33 400.23 324.58 407 322.35 414.87 322.06" stroke-dasharray="6 6" transform="rotate(84.84, 400, 400)" opacity="0.78"></path><path d="M419.46 332.65C432.18 333.25 445.19 339.66 455.02 349.2 463.57 359.27 466.78 371.68 461.86 383.53 454.68 395.38 442.03 404.31 428.37 409.5 415.06 415.16 401.2 418.03 389.36 417.35 377.51 418.17 369.6 415.41 366.52 409.83 363.38 404.7 364.65 395.8 370.46 383.94 374.45 372.08 381.24 359.63 389.48 349.49 396.58 339.88 406.74 333.37 419.46 332.65" stroke-dasharray="1 9" transform="rotate(88.88, 400, 400)" opacity="0.99"></path><path d="M422.04 343.23C431.63 343.57 440.69 348.07 447 354.9 452.58 362.05 454.29 371.05 450.44 379.89 445.34 388.72 436.21 395.67 426.06 399.99 415.94 404.61 405.24 407.13 396.21 406.76 384.26 406.01 377.12 392.51 381.89 380.21 385.17 371.37 390.92 362.34 397.83 355.13 404.1 348.25 412.44 343.66 422.04 343.23" stroke-dasharray="8 5" transform="rotate(92.92, 400, 400)" opacity="0.90"></path><path d="M422.33 353.82C435.13 354.44 443.7 365.43 439.01 377.17 432.17 388.91 415.71 396.83 403.46 396.17 391.2 396.97 387.16 389.14 393.31 377.4 397.53 365.65 409.52 354.57 422.33 353.82" stroke-dasharray="3 10" transform="rotate(96.96, 400, 400)" opacity="0.93"></path></g></svg>