<svg xmlns="http://www.w3.org/2000/svg" version="1.1" xmlns:xlink="http://www.w3.org/1999/xlink" xmlns:svgjs="http://svgjs.dev/svgjs" viewBox="0 0 800 800"><g shape-rendering="crispEdges"><g><use xlink:href="#SvgjsSymbol1000" x="112.5" y="237.5" fill="#ff9c00"></use><use xlink:href="#SvgjsSymbol1001" x="112.5" y="237.5" fill="#ffcd48"></use><use xlink:href="#SvgjsSymbol1002" x="112.5" y="237.5" fill="#c66d00"></use></g><g><use xlink:href="#SvgjsSymbol1000" x="287.5" y="587.5" fill="#ff9c00"></use><use xlink:href="#SvgjsSymbol1001" x="287.5" y="587.5" fill="#ffcd48"></use><use xlink:href="#SvgjsSymbol1002" x="287.5" y="587.5" fill="#c66d00"></use></g><g><use xlink:href="#SvgjsSymbol1000" x="62.5" y="100" fill="#ff9c00"></use><use xlink:href="#SvgjsSymbol1001" x="62.5" y="100" fill="#ffcd48"></use><use xlink:href="#SvgjsSymbol1002" x="62.5" y="100" fill="#c66d00"></use></g><g><use xlink:href="#SvgjsSymbol1000" x="362.5" y="162.5" fill="#ff9c00"></use><use xlink:href="#SvgjsSymbol1001" x="362.5" y="162.5" fill="#ffcd48"></use><use xlink:href="#SvgjsSymbol1002" x="362.5" y="162.5" fill="#c66d00"></use></g><g><use xlink:href="#SvgjsSymbol1000" x="150" y="475" fill="#ff9c00"></use><use xlink:href="#SvgjsSymbol1001" x="150" y="475" fill="#ffcd48"></use><use xlink:href="#SvgjsSymbol1002" x="150" y="475" fill="#c66d00"></use></g><g><use xlink:href="#SvgjsSymbol1000" x="500" y="325" fill="#ff9c00"></use><use xlink:href="#SvgjsSymbol1001" x="500" y="325" fill="#ffcd48"></use><use xlink:href="#SvgjsSymbol1002" x="500" y="325" fill="#c66d00"></use></g><g><use xlink:href="#SvgjsSymbol1000" x="600" y="175" fill="#ff9c00"></use><use xlink:href="#SvgjsSymbol1001" x="600" y="175" fill="#ffcd48"></use><use xlink:href="#SvgjsSymbol1002" x="600" y="175" fill="#c66d00"></use></g><g><use xlink:href="#SvgjsSymbol1000" x="337.5" y="62.5" fill="#ff9c00"></use><use xlink:href="#SvgjsSymbol1001" x="337.5" y="62.5" fill="#ffcd48"></use><use xlink:href="#SvgjsSymbol1002" x="337.5" y="62.5" fill="#c66d00"></use></g><g><use xlink:href="#SvgjsSymbol1000" x="112.5" y="662.5" fill="#ff9c00"></use><use xlink:href="#SvgjsSymbol1001" x="112.5" y="662.5" fill="#ffcd48"></use><use xlink:href="#SvgjsSymbol1002" x="112.5" y="662.5" fill="#c66d00"></use></g><g><use xlink:href="#SvgjsSymbol1000" x="600" y="675" fill="#ff9c00"></use><use xlink:href="#SvgjsSymbol1001" x="600" y="675" fill="#ffcd48"></use><use xlink:href="#SvgjsSymbol1002" x="600" y="675" fill="#c66d00"></use></g><g><use xlink:href="#SvgjsSymbol1000" x="112.5" y="362.5" fill="#ff9c00"></use><use xlink:href="#SvgjsSymbol1001" x="112.5" y="362.5" fill="#ffcd48"></use><use xlink:href="#SvgjsSymbol1002" x="112.5" y="362.5" fill="#c66d00"></use></g><g><use xlink:href="#SvgjsSymbol1000" x="75" y="450" fill="#ff9c00"></use><use xlink:href="#SvgjsSymbol1001" x="75" y="450" fill="#ffcd48"></use><use xlink:href="#SvgjsSymbol1002" x="75" y="450" fill="#c66d00"></use></g><g><use xlink:href="#SvgjsSymbol1000" x="62.5" y="425" fill="#ff9c00"></use><use xlink:href="#SvgjsSymbol1001" x="62.5" y="425" fill="#ffcd48"></use><use xlink:href="#SvgjsSymbol1002" x="62.5" y="425" fill="#c66d00"></use></g><g><use xlink:href="#SvgjsSymbol1000" x="62.5" y="400" fill="#ff9c00"></use><use xlink:href="#SvgjsSymbol1001" x="62.5" y="400" fill="#ffcd48"></use><use xlink:href="#SvgjsSymbol1002" x="62.5" y="400" fill="#c66d00"></use></g><g><use xlink:href="#SvgjsSymbol1000" x="50" y="387.5" fill="#ff9c00"></use><use xlink:href="#SvgjsSymbol1001" x="50" y="387.5" fill="#ffcd48"></use><use xlink:href="#SvgjsSymbol1002" x="50" y="387.5" fill="#c66d00"></use></g><g><use xlink:href="#SvgjsSymbol1000" x="225" y="150" fill="#ff9c00"></use><use xlink:href="#SvgjsSymbol1001" x="225" y="150" fill="#ffcd48"></use><use xlink:href="#SvgjsSymbol1002" x="225" y="150" fill="#c66d00"></use></g><g><use xlink:href="#SvgjsSymbol1000" x="112.5" y="175" fill="#ff9c00"></use><use xlink:href="#SvgjsSymbol1001" x="112.5" y="175" fill="#ffcd48"></use><use xlink:href="#SvgjsSymbol1002" x="112.5" y="175" fill="#c66d00"></use></g><g><use xlink:href="#SvgjsSymbol1000" x="325" y="312.5" fill="#1c3146"></use><use xlink:href="#SvgjsSymbol1001" x="325" y="312.5" fill="#465a71"></use><use xlink:href="#SvgjsSymbol1002" x="325" y="312.5" fill="#00081f"></use></g><g><use xlink:href="#SvgjsSymbol1000" x="375" y="512.5" fill="#1c3146"></use><use xlink:href="#SvgjsSymbol1001" x="375" y="512.5" fill="#465a71"></use><use xlink:href="#SvgjsSymbol1002" x="375" y="512.5" fill="#00081f"></use></g><g><use xlink:href="#SvgjsSymbol1000" x="100" y="612.5" fill="#1c3146"></use><use xlink:href="#SvgjsSymbol1001" x="100" y="612.5" fill="#465a71"></use><use xlink:href="#SvgjsSymbol1002" x="100" y="612.5" fill="#00081f"></use></g><g><use xlink:href="#SvgjsSymbol1000" x="637.5" y="487.5" fill="#1c3146"></use><use xlink:href="#SvgjsSymbol1001" x="637.5" y="487.5" fill="#465a71"></use><use xlink:href="#SvgjsSymbol1002" x="637.5" y="487.5" fill="#00081f"></use></g><g><use xlink:href="#SvgjsSymbol1000" x="712.5" y="362.5" fill="#1c3146"></use><use xlink:href="#SvgjsSymbol1001" x="712.5" y="362.5" fill="#465a71"></use><use xlink:href="#SvgjsSymbol1002" x="712.5" y="362.5" fill="#00081f"></use></g><g><use xlink:href="#SvgjsSymbol1000" x="712.5" y="325" fill="#1c3146"></use><use xlink:href="#SvgjsSymbol1001" x="712.5" y="325" fill="#465a71"></use><use xlink:href="#SvgjsSymbol1002" x="712.5" y="325" fill="#00081f"></use></g><g><use xlink:href="#SvgjsSymbol1000" x="600" y="325" fill="#1c3146"></use><use xlink:href="#SvgjsSymbol1001" x="600" y="325" fill="#465a71"></use><use xlink:href="#SvgjsSymbol1002" x="600" y="325" fill="#00081f"></use></g><g><use xlink:href="#SvgjsSymbol1000" x="525" y="450" fill="#1c3146"></use><use xlink:href="#SvgjsSymbol1001" x="525" y="450" fill="#465a71"></use><use xlink:href="#SvgjsSymbol1002" x="525" y="450" fill="#00081f"></use></g><g><use xlink:href="#SvgjsSymbol1000" x="725" y="37.5" fill="#1c3146"></use><use xlink:href="#SvgjsSymbol1001" x="725" y="37.5" fill="#465a71"></use><use xlink:href="#SvgjsSymbol1002" x="725" y="37.5" fill="#00081f"></use></g><g><use xlink:href="#SvgjsSymbol1000" x="525" y="62.5" fill="#1c3146"></use><use xlink:href="#SvgjsSymbol1001" x="525" y="62.5" fill="#465a71"></use><use xlink:href="#SvgjsSymbol1002" x="525" y="62.5" fill="#00081f"></use></g><g><use xlink:href="#SvgjsSymbol1000" x="425" y="425" fill="#1c3146"></use><use xlink:href="#SvgjsSymbol1001" x="425" y="425" fill="#465a71"></use><use xlink:href="#SvgjsSymbol1002" x="425" y="425" fill="#00081f"></use></g><g><use xlink:href="#SvgjsSymbol1000" x="362.5" y="425" fill="#1c3146"></use><use xlink:href="#SvgjsSymbol1001" x="362.5" y="425" fill="#465a71"></use><use xlink:href="#SvgjsSymbol1002" x="362.5" y="425" fill="#00081f"></use></g><g><use xlink:href="#SvgjsSymbol1000" x="612.5" y="612.5" fill="#1c3146"></use><use xlink:href="#SvgjsSymbol1001" x="612.5" y="612.5" fill="#465a71"></use><use xlink:href="#SvgjsSymbol1002" x="612.5" y="612.5" fill="#00081f"></use></g><g><use xlink:href="#SvgjsSymbol1000" x="675" y="612.5" fill="#1c3146"></use><use xlink:href="#SvgjsSymbol1001" x="675" y="612.5" fill="#465a71"></use><use xlink:href="#SvgjsSymbol1002" x="675" y="612.5" fill="#00081f"></use></g><g><use xlink:href="#SvgjsSymbol1000" x="437.5" y="662.5" fill="#1c3146"></use><use xlink:href="#SvgjsSymbol1001" x="437.5" y="662.5" fill="#465a71"></use><use xlink:href="#SvgjsSymbol1002" x="437.5" y="662.5" fill="#00081f"></use></g><g><use xlink:href="#SvgjsSymbol1000" x="387.5" y="687.5" fill="#1c3146"></use><use xlink:href="#SvgjsSymbol1001" x="387.5" y="687.5" fill="#465a71"></use><use xlink:href="#SvgjsSymbol1002" x="387.5" y="687.5" fill="#00081f"></use></g><g><use xlink:href="#SvgjsSymbol1000" x="337.5" y="675" fill="#1c3146"></use><use xlink:href="#SvgjsSymbol1001" x="337.5" y="675" fill="#465a71"></use><use xlink:href="#SvgjsSymbol1002" x="337.5" y="675" fill="#00081f"></use></g></g><symbol id="SvgjsSymbol1000"><polygon points="0,12.5 25,0 50,12.5 25,25"></polygon></symbol><symbol id="SvgjsSymbol1001"><polygon points="0,12.5 25,25 25,50 0,37.5"></polygon></symbol><symbol id="SvgjsSymbol1002"><polygon points="25,25 50,12.5 50,37.5 25,50"></polygon></symbol><g></g></svg>